# xmcd
#
# Track frame offsets: 
#        150
#        14008
#        26211
#        36939
#        49767
#        65912
#        78967
#        92548
#        103988
#        116058
#        130462
#        142104
#        154196
#        167940
#        178710
#        192139
#        203995
#        214697
#        229300
#        241929
#
# Disc length: 3383 seconds
#
# Revision: 0
# Processed by: cddbd v1.5.2PL0 Copyright (c) Steve Scherf et al.
# Submitted via: ExactAudioCopyFreeDBPlugin 1.0
#
DISCID=2e0d3514
DTITLE=Various Artist - Texas Blues #3
DYEAR=1900
DGENRE=Blues
TTITLE0=Pee Wee Crayton - When it Rains it Pours
TTITLE1=Lightnin’ Hopkins - Coffee Blues
TTITLE2=Smokey Hogg - Little School Girl
TTITLE3=Willie Mae 'Big Mama' Thornton - Nightmare
TTITLE4=Luther Stoneham - Sittin' Here Wonderin'
TTITLE5=Frankie Lee Sims - Single Man Blues
TTITLE6=Lightnin’ Hopkins - Give Me Central 209
TTITLE7=Frankie Lee Sims - Lucy Mae Blues
TTITLE8=Willie Mae 'Big Mama' Thornton - I Smell a Rat
TTITLE9=Lowell Fulson - Reconsider Baby
TTITLE10=Clarence 'Gatemouth' Brown - Okie Dokie
TTITLE11=Clarence Samuels - Chicken-Hearted Woman
TTITLE12=T-Bone Walker - Call it Stormy Monday (But Tuesday is Just as
TTITLE12=Bad)
TTITLE13=Frankie Lee Sims - What Will Lucy Do?
TTITLE14=Bobby 'Blue' Bland - Further Up the Road
TTITLE15=Freddie King - Hide Away
TTITLE16=Albert Collins - The Freeze
TTITLE17=Freddie King - The Stumble
TTITLE18=Jimmy Mc Cracklin - Just Got to Know
TTITLE19=Freddie King - San-Ho-Zay
EXTD=
EXTT0=
EXTT1=
EXTT2=
EXTT3=
EXTT4=
EXTT5=
EXTT6=
EXTT7=
EXTT8=
EXTT9=
EXTT10=
EXTT11=
EXTT12=
EXTT13=
EXTT14=
EXTT15=
EXTT16=
EXTT17=
EXTT18=
EXTT19=
PLAYORDER=
